HIERARCHY
ROOT Hips
{
	OFFSET 0.000000 0.000000 0.000000 
	CHANNELS 6 Xposition Yposition Zposition Zrotation Yrotation Xrotation
	JOINT LeftUpLeg
	{
		OFFSET 1.363060 -1.794630 0.839290 
		CHANNELS 3 Zrotation Yrotation Xrotation
		JOINT LeftLeg
		{
			OFFSET 2.448110 -6.726130 0.000000 
			CHANNELS 3 Zrotation Yrotation Xrotation
			JOINT LeftFoot
			{
				OFFSET 2.562200 -7.039590 0.000000 
				CHANNELS 3 Zrotation Yrotation Xrotation
				JOINT LeftToeBase
				{
					OFFSET 0.157640 -0.433110 2.322550 
					CHANNELS 3 Zrotation Yrotation Xrotation
					End Site
					{
						OFFSET 0.000000 0.000000 0.000000 
					}
				}
			}
		}
	}
	JOINT RightUpLeg
	{
		OFFSET -1.305520 -1.794630 0.839290 
		CHANNELS 3 Zrotation Yrotation Xrotation
		JOINT RightLeg
		{
			OFFSET -2.542530 -6.985550 0.000000 
			CHANNELS 3 Zrotation Yrotation Xrotation
			JOINT RightFoot
			{
				OFFSET -2.568260 -7.056230 0.000000 
				CHANNELS 3 Zrotation Yrotation Xrotation
				JOINT RightToeBase
				{
					OFFSET -0.164730 -0.452590 2.363150 
					CHANNELS 3 Zrotation Yrotation Xrotation
					End Site
					{
						OFFSET 0.000000 0.000000 0.000000 
					}
				}
			}
		}
	}
	JOINT Spine
	{
		OFFSET 0.028270 2.035590 -0.193380 
		CHANNELS 3 Zrotation Yrotation Xrotation
		JOINT Spine1
		{
			OFFSET 0.056720 2.048850 -0.042750 
			CHANNELS 3 Zrotation Yrotation Xrotation
			JOINT Neck1
			{
				OFFSET -0.054170 1.746240 0.172020 
				CHANNELS 3 Zrotation Yrotation Xrotation
				JOINT Head
				{
					OFFSET 0.104070 1.761360 -0.123970 
					CHANNELS 3 Zrotation Yrotation Xrotation
					End Site
					{
						OFFSET 0.000000 0.000000 0.000000 
					}
				}
			}
			JOINT LeftArm
			{
				OFFSET 3.362410 1.200890 -0.311210 
				CHANNELS 3 Zrotation Yrotation Xrotation
				JOINT LeftForeArm
				{
					OFFSET 4.983000 -0.000000 -0.000000 
					CHANNELS 3 Zrotation Yrotation Xrotation
					JOINT LeftHand
					{
						OFFSET 3.483560 -0.000000 -0.000000 
						CHANNELS 3 Zrotation Yrotation Xrotation
						JOINT LeftHandIndex1
						{
							OFFSET 0.715260 -0.000000 -0.000000 
							CHANNELS 3 Zrotation Yrotation Xrotation
							End Site
							{
								OFFSET 0.000000 0.000000 0.000000 
							}
						}
					}
				}
			}
			JOINT RightArm
			{
				OFFSET -3.136600 1.374050 -0.404650 
				CHANNELS 3 Zrotation Yrotation Xrotation
				JOINT RightForeArm
				{
					OFFSET -5.241900 -0.000000 -0.000000 
					CHANNELS 3 Zrotation Yrotation Xrotation
					JOINT RightHand
					{
						OFFSET -3.444170 -0.000000 -0.000000 
						CHANNELS 3 Zrotation Yrotation Xrotation
						JOINT RightHandIndex1
						{
							OFFSET -0.622530 -0.000000 -0.000000 
							CHANNELS 3 Zrotation Yrotation Xrotation
							End Site
							{
								OFFSET 0.000000 0.000000 0.000000 
							}
						}
					}
				}
			}
		}
	}
}
MOTION
Frames: 9
Frame Time: 0.041667
-33.680305 18.132129 3.293090 -18.753178 85.124428 -3.312692 -2.344881 -3.766570 -22.649080 2.386950 12.079652 33.620015 -4.899194 15.066477 5.504768 1.078800 -6.601900 -18.541300 17.598371 1.000828 -26.235491 -0.805862 -9.935902 26.556719 6.563740 -22.332710 -1.303959 -0.173700 2.684900 -7.402700 3.537370 0.550827 -10.822710 3.494195 0.899498 -6.281608 0.644142 -0.032341 24.276933 -1.115300 0.806500 4.425400 -90.996504 3.770577 -21.420987 8.699450 -9.621074 -0.964811 -0.619348 0.636417 61.117203 -7.125000 0.000000 0.000000 85.423369 -1.364801 -8.822678 -7.750088 11.327916 -1.042733 -0.833032 -0.207053 41.095853 7.125000 0.000000 0.000000 
-33.661363 18.131221 3.298761 -18.125236 85.160366 -2.561051 -2.377617 -3.779341 -22.670448 2.364056 12.066650 33.574426 -4.862658 14.978855 5.428756 1.078000 -6.599600 -18.534300 17.541310 0.998035 -26.268858 -0.803122 -9.924893 26.527693 6.594846 -22.412432 -1.331793 -0.185800 2.775900 -7.655300 3.493104 0.555579 -10.820591 3.477717 0.900361 -6.109176 0.872918 -0.050511 24.340312 -1.054900 0.812000 4.454000 -90.945922 3.691965 -21.868722 8.641030 -9.561067 -0.960270 -0.615254 0.651395 61.683615 -7.125000 0.000000 0.000000 85.549359 -1.364804 -9.104517 -7.802667 11.395733 -1.049891 -0.830597 -0.201224 42.098407 7.125000 0.000000 0.000000 
-33.660683 18.128839 3.299215 -18.303337 85.210584 -2.794167 -2.353628 -3.840188 -22.596784 2.357364 12.058450 33.552630 -4.868881 14.986119 5.391625 1.095500 -6.651200 -18.686100 17.553596 0.987046 -26.217571 -0.805262 -9.929170 26.527954 6.621644 -22.498678 -1.331335 -0.194000 2.836600 -7.824100 3.460464 0.570974 -10.803319 3.414669 0.897620 -6.155599 1.000310 0.002205 24.475629 -1.025700 0.853400 4.520600 -90.938386 3.719028 -21.738617 8.658257 -9.579650 -0.968432 -0.607980 0.665442 62.026736 -7.125000 0.000000 0.000000 85.653974 -1.423121 -8.565967 -7.816491 11.393134 -1.047865 -0.817186 -0.232612 41.253970 7.125000 0.000000 0.000000 
-33.655919 18.129180 3.302504 -19.254947 85.248910 -3.624034 -2.267149 -3.854398 -22.674672 2.358478 12.043803 33.507015 -4.901062 15.056334 5.434017 1.114600 -6.707000 -18.850200 17.665766 0.969486 -26.337547 -0.796603 -9.922680 26.506860 6.600361 -22.443461 -1.343112 -0.188200 2.794200 -7.706200 3.454878 0.579412 -10.811105 3.367246 0.892279 -6.056749 0.990616 -0.075315 24.237358 -1.056400 0.808300 4.434000 -90.865073 3.601870 -22.622718 8.651332 -9.601658 -0.948210 -0.580267 0.651375 62.573744 -7.125000 0.000000 0.000000 85.646512 -1.365886 -8.614526 -7.853353 11.443829 -1.047910 -0.811518 -0.217530 41.615765 7.125000 0.000000 0.000000 
-33.649567 18.128613 3.304886 -19.447094 85.254540 -3.898951 -2.245016 -3.863311 -22.575471 2.357730 12.038048 33.493174 -4.925180 15.105594 5.419478 1.111800 -6.698800 -18.826100 17.685843 0.970161 -26.218626 -0.788266 -9.916471 26.473561 6.617106 -22.497103 -1.384658 -0.182800 2.754000 -7.594600 3.428437 0.613158 -10.765785 3.314969 0.898858 -6.016740 1.065804 -0.125822 24.034078 -1.043200 0.779500 4.348600 -90.854382 3.664170 -22.188435 8.623071 -9.551796 -0.961151 -0.578467 0.685499 62.836428 -7.125000 0.000000 0.000000 85.687009 -1.319931 -8.315215 -7.773897 11.331248 -1.035879 -0.810281 -0.239082 40.696486 7.125000 0.000000 0.000000 
-33.639132 18.128386 3.307155 -19.671342 85.086055 -4.071357 -2.202741 -3.792848 -22.576741 2.366051 12.032021 33.471096 -5.007328 15.277449 5.405689 1.126400 -6.741200 -18.951000 17.712882 1.157306 -26.153933 -0.781833 -9.906716 26.431487 6.631145 -22.560446 -1.312131 -0.191000 2.814700 -7.763400 3.386689 0.701278 -10.740805 3.181765 0.925321 -5.898480 1.311364 -0.135620 23.949597 -0.964000 0.780600 4.314400 -90.713010 3.586698 -21.975824 8.664708 -9.604546 -0.950183 -0.594401 0.638445 61.745474 -7.125000 0.000000 0.000000 85.752923 -1.185788 -8.717438 -7.790931 11.355945 -1.031206 -0.806426 -0.213753 41.557397 7.125000 0.000000 0.000000 
-33.629831 18.127592 3.308176 -20.021812 85.004007 -4.569109 -2.162617 -3.788914 -22.383051 2.370973 12.025320 33.457197 -5.089995 15.443920 5.338220 1.145900 -6.797400 -19.116400 17.756707 1.180596 -25.950684 -0.773146 -9.904247 26.397929 6.625576 -22.565160 -1.265801 -0.205700 2.920600 -8.057700 3.377481 0.765376 -10.662281 3.143501 0.945821 -5.827208 1.598563 -0.082822 24.019103 -0.858500 0.820000 4.343500 -90.694780 3.628278 -21.844977 8.582563 -9.495258 -0.953477 -0.572566 0.688835 62.450605 -7.125000 0.000000 0.000000 85.800224 -1.156232 -8.202880 -7.816507 11.368584 -1.024102 -0.787803 -0.225832 40.532882 7.125000 0.000000 0.000000 
-33.621891 18.127592 3.310898 -19.866796 84.980414 -4.279441 -2.162220 -3.819691 -22.444058 2.359283 12.014781 33.418425 -5.110311 15.473889 5.251856 1.124400 -6.735400 -18.933800 17.769345 1.095977 -26.079897 -0.758912 -9.884999 26.354367 6.577383 -22.407497 -1.277210 -0.199700 2.877700 -7.938600 3.360212 0.791180 -10.693626 3.130675 0.962200 -5.762816 1.700182 -0.176404 23.944993 -0.842500 0.776500 4.302400 -90.636799 3.591046 -22.000762 8.583279 -9.502567 -0.945247 -0.578685 0.669163 62.026573 -7.125000 0.000000 0.000000 85.799737 -1.154175 -8.516297 -7.824900 11.390114 -1.025258 -0.791787 -0.206165 41.269023 7.125000 0.000000 0.000000 
-33.617354 18.128499 3.317477 -19.937319 85.064311 -4.299068 -2.137141 -3.862251 -22.443016 2.340928 11.997520 33.375039 -5.042298 15.327047 5.250314 1.087800 -6.628400 -18.619100 17.776100 1.078423 -26.090074 -0.745784 -9.872612 26.327584 6.559747 -22.334952 -1.425574 -0.170500 2.659800 -7.333100 3.367445 0.734812 -10.727610 3.128262 0.942316 -5.787370 2.167229 -0.101720 24.159852 -0.645400 0.833800 4.374200 -90.629975 3.644805 -22.063777 8.564327 -9.481375 -0.944781 -0.573353 0.678056 61.916931 -7.125000 0.000000 0.000000 85.835891 -1.277639 -7.931204 -7.791018 11.330687 -1.020638 -0.787093 -0.237112 40.347745 7.125000 0.000000 0.000000 
